HIERARCHY
ROOT Hips
{
    OFFSET 0.000000 0.000000 0.000000
    CHANNELS 6 Xposition Yposition Zposition Zrotation Xrotation Yrotation
    JOINT Spine
    {
        OFFSET -0.000000 14.517291 0.000000
        CHANNELS 3 Zrotation Xrotation Yrotation
        JOINT Spine1
        {
            OFFSET -0.000000 37.558300 0.000000
            CHANNELS 3 Zrotation Xrotation Yrotation
            JOINT Neck
            {
                OFFSET -0.000000 37.404057 3.400369
                CHANNELS 3 Zrotation Xrotation Yrotation
                JOINT Head
                {
                    OFFSET -0.000000 24.785618 -3.540803
                    CHANNELS 3 Zrotation Xrotation Yrotation
                    End Site
                    {
                        OFFSET -0.000000 35.408028 0.000000
                    }
                }
            }
            JOINT LeftShoulder
            {
                OFFSET 6.992933 33.973492 -0.192664
                CHANNELS 3 Zrotation Xrotation Yrotation
                JOINT LeftArm
                {
                    OFFSET 21.527611 0.000000 0.000000
                    CHANNELS 3 Zrotation Xrotation Yrotation
                    JOINT LeftForeArm
                    {
                        OFFSET 56.353916 0.000000 0.000000
                        CHANNELS 3 Zrotation Xrotation Yrotation
                        JOINT LeftHand
                        {
                            OFFSET 47.774071 0.000000 0.000000
                            CHANNELS 3 Zrotation Xrotation Yrotation
                            End Site
                            {
                                OFFSET 26.556021 0.000000 0.000000
                            }
                        }
                    }
                }
            }
            JOINT RightShoulder
            {
                OFFSET -7.065357 33.973492 -0.192664
                CHANNELS 3 Zrotation Xrotation Yrotation
                JOINT RightArm
                {
                    OFFSET -21.527611 0.000000 0.000000
                    CHANNELS 3 Zrotation Xrotation Yrotation
                    JOINT RightForeArm
                    {
                        OFFSET -56.353916 0.000000 0.000000
                        CHANNELS 3 Zrotation Xrotation Yrotation
                        JOINT RightHand
                        {
                            OFFSET -47.774071 0.000000 0.000000
                            CHANNELS 3 Zrotation Xrotation Yrotation
                            End Site
                            {
                                OFFSET -26.556021 0.000000 0.000000
                            }
                        }
                    }
                }
            }
        }
    }
    JOINT LeftUpLeg
    {
        OFFSET 17.704014 0.000000 0.000000
        CHANNELS 3 Zrotation Xrotation Yrotation
        JOINT LeftLeg
        {
            OFFSET -0.000000 -81.181816 0.000000
            CHANNELS 3 Zrotation Xrotation Yrotation
            JOINT LeftFoot
            {
                OFFSET -0.000000 -62.821102 0.000000
                CHANNELS 3 Zrotation Xrotation Yrotation
                JOINT LeftToeBase
                {
                    OFFSET -0.000000 -11.507608 26.556021
                    CHANNELS 3 Zrotation Xrotation Yrotation
                    End Site
                    {
                        OFFSET -0.000000 0.000000 7.081605
                    }
                }
            }
        }
    }
    JOINT RightUpLeg
    {
        OFFSET -17.704014 0.000000 0.000000
        CHANNELS 3 Zrotation Xrotation Yrotation
        JOINT RightLeg
        {
            OFFSET -0.000000 -81.181816 0.000000
            CHANNELS 3 Zrotation Xrotation Yrotation
            JOINT RightFoot
            {
                OFFSET -0.000000 -62.821102 0.000000
                CHANNELS 3 Zrotation Xrotation Yrotation
                JOINT RightToeBase
                {
                    OFFSET -0.000000 -11.507608 26.556021
                    CHANNELS 3 Zrotation Xrotation Yrotation
                    End Site
                    {
                        OFFSET -0.000000 0.000000 7.081605
                    }
                }
            }
        }
    }
}
MOTION
Frames:    11
Frame Time:    0.008333
49.624626    149.118881    -12.001387    0.224867    -1.152235    -8.762404    4.247852    0.823315    8.398994    -4.622416    1.000594    2.851418    7.343423    -5.769688    -4.681615    2.058054    10.369766    -6.236959    2.839368    4.387965    -9.597777    -43.717674    16.294748    -34.380516    -5.044972    -22.653431    -124.554596    -0.021129    -31.224953    -3.323885    -15.590903    -1.759562    3.894276    32.442219    -19.241928    77.010887    4.028978    -17.071577    24.375036    12.598837    -13.062664    43.292000    27.469839    -24.400213    -3.971717    -14.187767    29.065426    -12.976867    -17.207964    -9.095895    42.342224    0.000000    0.000000    0.000000    -17.937090    -0.874824    -18.510357    4.636769    42.836132    -8.189136    13.168507    -29.527693    -7.704115    0.000000    0.000000    0.000000    
48.698898    149.139343    -12.444109    0.115340    -1.327583    -8.892088    4.328667    0.808850    8.360856    -4.601683    1.054646    2.840750    7.227846    -5.673836    -4.603749    2.189208    10.519991    -6.122693    2.769060    4.381608    -9.497460    -43.826012    16.163586    -34.333038    -5.051000    -22.529078    -124.559128    -0.079754    -31.118773    -3.341007    -15.626797    -1.658062    4.004685    32.531834    -19.209373    77.133408    4.079382    -17.004765    24.472626    12.585568    -13.015906    43.276615    27.747353    -24.021427    -4.308125    -13.895084    28.380266    -12.938404    -17.925711    -8.640246    42.802540    0.000000    0.000000    0.000000    -17.579618    -0.943595    -18.595692    4.560887    43.165356    -8.080656    13.019351    -29.784338    -7.519376    0.000000    0.000000    0.000000    
47.734402    149.202316    -12.900297    -0.016873    -1.518310    -9.046007    4.475268    0.793745    8.359291    -4.674470    1.140914    2.844610    7.100834    -5.537888    -4.561261    2.407553    10.635092    -6.035964    2.770932    4.359973    -9.425295    -43.979771    16.080355    -34.266319    -5.073548    -22.427929    -124.536003    -0.155025    -31.056139    -3.617741    -15.636510    -1.542421    4.142067    32.582977    -19.197844    77.190079    4.116411    -16.952631    24.582067    12.606109    -12.961232    43.319370    28.049932    -23.615772    -4.751627    -13.652975    27.632517    -12.783201    -18.700310    -8.106441    43.367096    0.000000    0.000000    0.000000    -17.182594    -0.957723    -18.574938    4.602257    43.386936    -7.816817    12.671954    -30.049023    -7.668264    0.000000    0.000000    0.000000    
46.746342    149.289703    -13.373068    -0.191346    -1.720555    -9.172593    4.647481    0.803997    8.353048    -4.708258    1.220751    2.846698    7.025707    -5.379930    -4.499813    2.500683    10.684137    -5.943734    2.695543    4.337687    -9.374043    -44.116577    16.031109    -34.189964    -5.024840    -22.375645    -124.569275    -0.207551    -30.932140    -3.462274    -15.657425    -1.454292    4.243178    32.643444    -19.146967    77.256165    4.153837    -16.890757    24.675154    12.624153    -12.904224    43.305561    28.387794    -23.236845    -5.212303    -13.369282    26.927767    -12.652490    -19.576328    -7.543212    43.901543    0.000000    0.000000    0.000000    -16.730257    -0.931290    -18.567804    4.647520    43.572300    -7.618814    12.384060    -30.245211    -7.734336    0.000000    0.000000    0.000000    
45.707863    149.427460    -13.904262    -0.363066    -1.907002    -9.295990    4.767846    0.812056    8.348723    -4.683829    1.311634    2.849146    6.824647    -5.270350    -4.470876    2.786152    10.803864    -5.856284    2.606313    4.270355    -9.320525    -44.325348    15.910026    -34.063412    -5.057699    -22.159199    -124.606613    -0.258377    -30.790949    -3.436244    -15.721270    -1.371213    4.343596    32.667526    -19.089830    77.280594    4.182522    -16.863615    24.810402    12.646093    -12.874665    43.341209    28.754265    -22.898798    -5.741891    -13.116364    26.179310    -12.418367    -20.563915    -6.808983    44.450165    0.000000    0.000000    0.000000    -16.240120    -0.919759    -18.506937    4.767657    43.705589    -7.439884    11.940433    -30.407579    -7.960872    0.000000    0.000000    0.000000    
44.627167    149.590866    -14.459589    -0.567323    -2.076826    -9.408665    4.947175    0.833813    8.334649    -4.759217    1.374262    2.848716    6.737247    -5.151913    -4.429362    3.003015    10.921997    -5.781560    2.595189    4.248449    -9.231927    -44.547260    15.856523    -33.981129    -5.109613    -22.000586    -124.661476    -0.406606    -30.735506    -3.475006    -15.703749    -1.252377    4.478939    32.719666    -19.085030    77.313019    4.234363    -16.793524    24.912727    12.648347    -12.810363    43.397011    29.180361    -22.615383    -6.202235    -12.865249    25.466225    -12.255074    -21.576416    -5.986194    45.080021    0.000000    0.000000    0.000000    -15.688435    -0.882399    -18.424120    4.955871    43.750298    -7.364116    11.475944    -30.549280    -8.185095    0.000000    0.000000    0.000000    
43.495804    149.807953    -15.038737    -0.795072    -2.261292    -9.511925    5.084245    0.860190    8.324796    -4.726471    1.455099    2.849178    6.461434    -5.067639    -4.434212    3.439393    11.137878    -5.714052    2.494471    4.187804    -9.205368    -44.750771    15.822313    -33.798569    -5.106000    -21.873444    -124.708450    -0.418097    -30.619581    -3.498230    -15.753087    -1.099033    4.607286    32.810486    -19.126293    77.373177    4.305986    -16.712015    25.002235    12.649690    -12.744722    43.405308    29.645338    -22.323969    -6.679663    -12.642398    24.701694    -11.990601    -22.625906    -4.987472    45.706940    0.000000    0.000000    0.000000    -15.069671    -0.798662    -18.344807    5.118000    43.694420    -7.305575    10.977201    -30.607559    -8.394680    0.000000    0.000000    0.000000    
42.328941    150.065887    -15.645352    -1.039608    -2.440612    -9.570234    5.243563    0.926108    8.296041    -4.773920    1.516668    2.844201    6.506968    -4.974067    -4.383111    3.498032    11.248137    -5.665077    2.481949    4.174510    -9.091026    -44.938084    15.875217    -33.754990    -5.033360    -21.841007    -124.739212    -0.486022    -30.472584    -3.490273    -15.711137    -0.998220    4.701301    32.789684    -19.103041    77.382751    4.361540    -16.684740    25.088566    12.682293    -12.712822    43.458683    30.113369    -22.054659    -7.132932    -12.376155    23.880720    -11.721544    -23.718718    -3.835440    46.351242    0.000000    0.000000    0.000000    -14.404039    -0.683113    -18.290237    5.284210    43.570202    -7.254989    10.471731    -30.587181    -8.616348    0.000000    0.000000    0.000000    
41.134964    150.360580    -16.276917    -1.267603    -2.605528    -9.588934    5.322431    0.973255    8.266633    -4.719505    1.557167    2.836355    6.405587    -4.940429    -4.385012    3.731994    11.528441    -5.644523    2.428424    4.173919    -9.049781    -45.189899    15.846326    -33.673630    -5.092889    -21.691208    -124.808708    -0.631417    -30.441044    -3.521180    -15.714624    -0.889659    4.805353    32.833668    -19.131281    77.378510    4.491432    -16.585562    25.157927    12.615936    -12.670020    43.450584    30.535179    -21.833284    -7.512367    -11.918535    23.109997    -11.893338    -24.918961    -2.688358    47.094109    0.000000    0.000000    0.000000    -13.711122    -0.483757    -18.326626    5.382061    43.244732    -7.122633    9.952069    -30.583078    -8.815928    0.000000    0.000000    0.000000    
39.925373    150.686234    -16.936144    -1.469501    -2.726560    -9.583401    5.419018    0.984933    8.234637    -4.778569    1.621945    2.829676    6.409106    -4.928312    -4.364677    3.929282    11.782889    -5.624052    2.473237    4.182826    -8.963648    -45.379784    15.836796    -33.764812    -5.055821    -21.603237    -124.798767    -0.621000    -30.296423    -3.453627    -15.652329    -0.853959    4.892578    32.894592    -19.135344    77.324318    4.646203    -16.422422    25.247791    12.551649    -12.577443    43.365219    30.928719    -21.638332    -7.825792    -11.669451    22.105577    -11.302673    -25.771708    -1.009004    47.740768    0.000000    0.000000    0.000000    -13.034857    -0.398155    -18.348524    5.476315    43.029644    -7.172965    9.594885    -30.429945    -8.843648    0.000000    0.000000    0.000000    
38.728165    151.028625    -17.616001    -1.619090    -2.819717    -9.549627    5.430043    0.996841    8.215687    -4.749800    1.609840    2.822686    6.374953    -4.875179    -4.380305    4.095582    12.056805    -5.634228    2.438292    4.240243    -8.933943    -45.592579    15.867591    -33.655537    -4.898989    -21.722702    -124.734497    -1.396531    -30.108738    -4.010927    -15.659558    -0.705702    4.924001    32.912045    -19.144531    77.364449    4.743624    -16.334328    25.219851    12.492320    -12.530398    43.372280    31.232811    -21.513298    -8.054992    -11.274406    21.178099    -11.128716    -26.743055    0.548518    48.593239    0.000000    0.000000    0.000000    -12.414080    -0.317185    -18.371763    5.621918    42.749493    -7.254228    9.194887    -30.253830    -8.886917    0.000000    0.000000    0.000000    
